<?xml version="1.0" encoding="UTF-8"?><svg id="Layer_2" xmlns="http://www.w3.org/2000/svg" viewBox="0 0 794.26 211.71"><defs><style>.cls-1{fill:#fff;}.cls-2,.cls-3{fill:#ed1c24;}.cls-2,.cls-4{fill-rule:evenodd;}.cls-4{fill:#1f3668;}</style></defs><g id="Camada_1"><g><rect class="cls-1" width="794.26" height="211.71"/><g><path class="cls-2" d="M250.07,173.08c.8,0,1.47-.06,2-.19,.53-.13,.95-.31,1.27-.55,.32-.23,.54-.5,.66-.82,.12-.32,.19-.67,.19-1.06,0-.83-.38-1.52-1.16-2.08-.78-.55-2.12-1.15-4.02-1.8-.83-.29-1.66-.64-2.49-1.02-.83-.38-1.57-.86-2.23-1.44-.66-.58-1.19-1.28-1.6-2.1-.41-.82-.61-1.82-.61-2.99,0-1.17,.23-2.23,.68-3.16,.44-.94,1.07-1.74,1.88-2.39,.81-.66,1.79-1.16,2.94-1.51,1.15-.35,2.45-.52,3.89-.51,1.71,0,3.19,.2,4.43,.57,1.24,.37,2.27,.78,3.07,1.23l-1.67,4.5c-.71-.37-1.49-.7-2.36-.98-.87-.29-1.91-.43-3.13-.44-1.37,0-2.35,.18-2.95,.56-.6,.38-.9,.95-.91,1.74,0,.47,.11,.85,.32,1.18,.22,.32,.53,.61,.93,.87,.4,.26,.87,.49,1.39,.7,.52,.21,1.1,.43,1.74,.65,1.32,.49,2.46,.98,3.44,1.47,.97,.48,1.78,1.04,2.43,1.68,.65,.64,1.12,1.38,1.44,2.24,.31,.86,.47,1.9,.46,3.12-.01,2.37-.85,4.21-2.52,5.5-1.67,1.3-4.17,1.94-7.52,1.93-1.12,0-2.14-.08-3.04-.22-.9-.14-1.7-.31-2.4-.5-.7-.2-1.29-.41-1.79-.63-.5-.22-.92-.43-1.26-.63l1.63-4.54c.75,.42,1.69,.8,2.8,1.13,1.11,.33,2.47,.5,4.08,.51Z"/><path class="cls-2" d="M280.54,176.94c-.93,.26-2.13,.51-3.59,.73-1.47,.22-3.01,.33-4.62,.33-1.64,0-3-.23-4.08-.68-1.08-.44-1.94-1.07-2.57-1.87-.63-.8-1.08-1.75-1.34-2.85-.26-1.1-.39-2.31-.39-3.63l.05-10.74,5.46,.03-.05,10.08c0,1.76,.22,3.03,.68,3.81,.46,.79,1.32,1.18,2.6,1.18,.39,0,.81-.01,1.25-.05,.44-.03,.83-.07,1.17-.12l.07-14.87,5.46,.03-.09,18.61Z"/><path class="cls-2" d="M293.04,173.84c.54,0,1.05,0,1.54-.03,.49-.02,.88-.06,1.17-.11l.02-4.14c-.22-.05-.55-.1-.99-.15-.44-.05-.84-.08-1.21-.08-.51,0-.99,.02-1.45,.08-.45,.06-.85,.17-1.19,.34-.34,.17-.61,.4-.81,.69-.2,.29-.3,.66-.3,1.1,0,.86,.28,1.45,.85,1.78,.57,.33,1.36,.5,2.36,.51h0Zm-.36-15.98c1.61,0,2.95,.2,4.03,.57,1.07,.37,1.93,.9,2.58,1.59,.64,.69,1.1,1.52,1.36,2.5,.26,.98,.39,2.07,.39,3.26l-.06,11.36c-.78,.17-1.87,.36-3.26,.59-1.39,.23-3.08,.33-5.06,.32-1.24,0-2.37-.12-3.39-.35-1.01-.23-1.88-.59-2.61-1.1-.73-.5-1.29-1.16-1.67-1.97-.39-.81-.58-1.8-.57-2.97,0-1.13,.24-2.08,.69-2.86,.46-.78,1.06-1.4,1.82-1.86,.76-.46,1.63-.79,2.61-1,.98-.2,1.99-.3,3.04-.3,.71,0,1.34,.04,1.89,.1,.55,.06,.99,.15,1.34,.25v-.51c0-.93-.27-1.67-.83-2.24-.56-.57-1.53-.85-2.93-.86-.93,0-1.84,.06-2.75,.19-.91,.13-1.69,.32-2.35,.56l-.68-4.4c.32-.1,.72-.2,1.19-.3,.48-.11,1-.2,1.56-.29,.56-.08,1.15-.15,1.78-.21,.62-.06,1.25-.08,1.89-.08Z"/><path class="cls-2" d="M325.35,167.59c0-1.76-.21-3.01-.66-3.74-.45-.73-1.22-1.1-2.32-1.11-.34,0-.7,.01-1.06,.05-.37,.03-.72,.07-1.06,.12l-.07,14.88-5.46-.03,.09-18.61c.46-.12,1.01-.25,1.63-.38,.62-.13,1.28-.25,1.98-.36,.7-.11,1.41-.19,2.14-.24,.73-.06,1.45-.08,2.16-.08,1.39,0,2.52,.19,3.39,.55,.87,.36,1.58,.79,2.14,1.28,.79-.56,1.68-.99,2.7-1.31,1.02-.31,1.95-.47,2.81-.46,1.54,0,2.8,.23,3.79,.66,.99,.43,1.77,1.04,2.35,1.83,.58,.79,.98,1.72,1.2,2.79,.21,1.08,.32,2.27,.31,3.59l-.05,10.88-5.46-.03,.05-10.22c0-1.76-.21-3.01-.66-3.74-.45-.73-1.22-1.1-2.32-1.11-.29,0-.7,.07-1.23,.21-.53,.14-.96,.33-1.3,.54,.17,.56,.28,1.15,.32,1.78,.05,.62,.07,1.29,.06,2l-.05,10.52-5.46-.03,.05-10.22Z"/><path class="cls-2" d="M358.26,166.4c-.02-.46-.1-.92-.23-1.36-.13-.44-.34-.83-.62-1.18-.28-.34-.63-.63-1.06-.85-.43-.22-.96-.34-1.59-.34-.61,0-1.14,.1-1.58,.3-.44,.21-.81,.48-1.1,.82-.29,.34-.52,.74-.68,1.19-.16,.45-.28,.91-.35,1.37l7.22,.04h0Zm-12.83,2.03c0-1.71,.28-3.21,.81-4.49,.53-1.28,1.23-2.35,2.09-3.2,.86-.85,1.84-1.49,2.96-1.93,1.11-.43,2.26-.65,3.43-.64,2.73,.01,4.89,.86,6.47,2.54,1.58,1.68,2.36,4.15,2.35,7.39,0,.32-.02,.67-.04,1.04-.03,.38-.05,.71-.08,1.01l-12.38-.06c.12,1.12,.64,2.02,1.56,2.68,.93,.67,2.17,1,3.73,1.01,1,0,1.99-.08,2.95-.26,.96-.18,1.75-.4,2.37-.67l.71,4.44c-.29,.14-.68,.29-1.17,.43-.49,.14-1.03,.27-1.63,.38-.6,.11-1.24,.19-1.93,.26-.68,.07-1.37,.1-2.05,.1-1.74,0-3.24-.27-4.52-.79-1.28-.52-2.34-1.23-3.18-2.12-.84-.89-1.45-1.95-1.85-3.18-.4-1.22-.59-2.54-.59-3.96Z"/><path class="cls-2" d="M375.39,178.43c-1.59-.03-2.88-.21-3.86-.53-.99-.32-1.77-.77-2.34-1.35-.57-.58-.96-1.27-1.16-2.09-.2-.82-.3-1.74-.3-2.77l.11-21.21,5.46-.85-.1,21c0,.49,.03,.93,.1,1.32,.07,.39,.21,.72,.42,.99,.21,.27,.5,.49,.9,.67,.39,.17,.91,.28,1.57,.34l-.79,4.5Z"/><path class="cls-2" d="M379.27,178.09l.14-27.55,5.46-.85-.05,9.23c.37-.12,.84-.23,1.41-.34,.57-.1,1.13-.16,1.67-.15,1.56,0,2.86,.23,3.9,.66,1.04,.44,1.86,1.04,2.48,1.83,.62,.78,1.05,1.72,1.31,2.79,.25,1.08,.37,2.27,.37,3.59l-.05,10.88-5.46-.03,.05-10.22c0-1.76-.21-3.01-.66-3.74-.45-.73-1.28-1.1-2.51-1.11-.49,0-.95,.04-1.37,.12-.43,.09-.81,.17-1.15,.27l-.07,14.66-5.46-.03Z"/><path class="cls-2" d="M413.36,168.58c0-1.68-.32-3.01-.99-3.98-.67-.97-1.62-1.46-2.87-1.46-1.25,0-2.21,.47-2.9,1.43-.69,.96-1.04,2.28-1.05,3.97,0,1.69,.33,3.02,1.01,4.02,.68,.99,1.64,1.49,2.89,1.5,1.25,0,2.21-.48,2.88-1.47,.68-.99,1.02-2.32,1.03-4.01h0Zm5.57,.03c0,1.52-.23,2.9-.68,4.16-.44,1.26-1.09,2.33-1.92,3.22-.83,.89-1.83,1.57-2.99,2.05-1.16,.48-2.47,.72-3.91,.72-1.42,0-2.7-.26-3.86-.75-1.16-.49-2.15-1.19-2.98-2.08-.83-.89-1.47-1.97-1.93-3.23-.46-1.26-.68-2.65-.67-4.17,0-1.51,.25-2.89,.73-4.13,.48-1.24,1.15-2.3,1.99-3.18,.85-.87,1.85-1.55,3.01-2.04,1.16-.48,2.43-.72,3.8-.71,1.39,0,2.67,.26,3.83,.75,1.16,.5,2.15,1.18,2.98,2.07,.82,.89,1.47,1.95,1.93,3.2,.46,1.25,.68,2.63,.68,4.14Z"/><path class="cls-2" d="M434.78,163.92c-.49-.12-1.06-.26-1.72-.39-.66-.14-1.37-.21-2.12-.21-.34,0-.75,.03-1.23,.09-.48,.06-.84,.12-1.08,.2l-.07,14.73-5.46-.03,.09-18.25c.98-.34,2.14-.65,3.47-.96,1.33-.3,2.82-.44,4.46-.43,.29,0,.65,.02,1.06,.06,.41,.04,.83,.09,1.25,.15,.41,.06,.83,.14,1.25,.22,.41,.09,.77,.2,1.06,.32l-.94,4.5Z"/><path class="cls-2" d="M459.85,168.81c0-1.68-.32-3.01-.99-3.98-.67-.97-1.62-1.46-2.87-1.46-1.25,0-2.21,.47-2.9,1.43-.69,.96-1.04,2.28-1.05,3.97,0,1.69,.33,3.03,1.01,4.02,.68,.99,1.64,1.49,2.89,1.5,1.25,0,2.21-.48,2.88-1.47,.68-.99,1.02-2.32,1.03-4.01h0Zm5.57,.03c0,1.52-.23,2.9-.68,4.16-.44,1.26-1.08,2.33-1.92,3.22-.84,.89-1.83,1.57-3,2.05-1.16,.48-2.47,.72-3.91,.72-1.42,0-2.7-.26-3.86-.75-1.16-.49-2.15-1.19-2.98-2.08-.83-.89-1.47-1.97-1.93-3.23-.46-1.26-.68-2.65-.67-4.17,0-1.51,.25-2.89,.74-4.13,.48-1.24,1.15-2.3,1.99-3.18,.85-.87,1.85-1.55,3.01-2.04,1.16-.49,2.43-.72,3.8-.71,1.39,0,2.67,.26,3.82,.75,1.16,.5,2.15,1.18,2.98,2.07,.82,.88,1.47,1.95,1.93,3.2,.46,1.25,.68,2.63,.68,4.14Z"/><path class="cls-2" d="M481.98,169.11c0-1.69-.36-3.04-1.12-4.06-.75-1.02-1.87-1.53-3.36-1.54-.49,0-.94,.01-1.36,.05-.42,.03-.76,.08-1.03,.12l-.05,9.86c.34,.22,.78,.41,1.33,.56,.55,.15,1.1,.22,1.66,.23,2.59,.01,3.89-1.73,3.91-5.22h0Zm5.57-.12c0,1.49-.2,2.85-.57,4.06-.37,1.22-.91,2.27-1.63,3.14-.71,.88-1.6,1.56-2.65,2.04-1.05,.49-2.26,.72-3.63,.72-.76,0-1.47-.08-2.12-.23-.66-.15-1.29-.36-1.9-.63l-.04,7.26-5.46-.03,.13-25.39c.49-.14,1.05-.28,1.69-.41,.64-.13,1.3-.24,2-.34,.7-.09,1.41-.17,2.13-.23,.72-.06,1.41-.08,2.07-.08,1.59,0,3,.25,4.25,.74,1.24,.48,2.29,1.16,3.14,2.03,.85,.87,1.5,1.93,1.94,3.18,.45,1.25,.67,2.64,.66,4.18Z"/><path class="cls-2" d="M501.16,180.16c.78,.39,1.31,.86,1.6,1.4,.29,.54,.44,1.09,.43,1.65,0,1.17-.47,2.06-1.41,2.67-.93,.6-2.15,.91-3.67,.9-.54,0-1.08-.05-1.61-.14-.54-.09-1.07-.21-1.61-.36l.68-3.18c.17,.05,.48,.13,.93,.24,.45,.11,.9,.17,1.34,.17,.34,0,.64-.06,.9-.2,.26-.13,.4-.37,.42-.71,.03-.29-.09-.56-.34-.81-.26-.25-.66-.43-1.23-.56l-.44-.11c.1-.32,.24-.67,.41-1.08,.17-.4,.34-.77,.52-1.11-1.27-.25-2.36-.68-3.27-1.28-.91-.6-1.67-1.34-2.26-2.21-.6-.87-1.03-1.86-1.3-2.96-.28-1.1-.41-2.26-.41-3.48,0-1.39,.24-2.7,.7-3.94,.46-1.23,1.12-2.3,1.98-3.21,.86-.91,1.9-1.63,3.13-2.17,1.22-.53,2.62-.8,4.18-.79,1.03,0,1.97,.1,2.82,.29,.85,.19,1.68,.46,2.49,.8l-1.16,4.36c-.51-.2-1.07-.37-1.68-.52-.61-.15-1.29-.23-2.05-.23-1.61,0-2.82,.49-3.62,1.49-.8,1-1.2,2.32-1.21,3.95,0,1.74,.35,3.08,1.1,4.04,.74,.96,2.04,1.44,3.9,1.45,.66,0,1.37-.05,2.13-.17,.76-.12,1.45-.31,2.09-.58l.75,4.47c-.56,.24-1.25,.45-2.07,.61-.82,.17-1.72,.27-2.7,.32-.1,.19-.18,.38-.26,.55-.07,.17-.14,.32-.19,.44Z"/><path class="cls-2" d="M516.51,174.96c.54,0,1.05,0,1.54-.03,.49-.02,.88-.06,1.17-.11l.02-4.14c-.22-.05-.55-.1-.99-.15-.44-.05-.84-.07-1.21-.08-.51,0-1,.02-1.45,.08-.45,.06-.85,.17-1.19,.34-.34,.17-.61,.4-.81,.7-.2,.29-.3,.66-.3,1.1,0,.86,.28,1.45,.85,1.78,.57,.34,1.36,.5,2.36,.51h0Zm6.81-22.14c-.15,.37-.35,.77-.61,1.21-.26,.44-.57,.84-.94,1.22-.37,.38-.78,.69-1.25,.93-.47,.24-.98,.36-1.54,.36-.44,0-.85-.07-1.23-.21-.38-.14-.75-.28-1.12-.44-.37-.16-.73-.31-1.1-.45-.36-.14-.74-.2-1.13-.21-.49,0-.89,.15-1.21,.47-.32,.32-.58,.68-.78,1.1l-2.67-1.77c.15-.36,.35-.77,.61-1.21,.26-.44,.57-.85,.94-1.22,.37-.38,.78-.69,1.25-.93,.46-.24,.98-.36,1.54-.36,.44,0,.85,.07,1.23,.21,.38,.14,.75,.28,1.12,.45,.37,.16,.73,.31,1.08,.44,.35,.14,.74,.21,1.15,.21,.49,0,.89-.16,1.21-.47,.32-.31,.58-.68,.78-1.09l2.66,1.77h0Zm-7.18,6.16c1.61,0,2.96,.2,4.03,.57,1.07,.37,1.93,.9,2.58,1.59,.64,.69,1.1,1.52,1.36,2.5,.26,.98,.39,2.07,.39,3.26l-.06,11.36c-.78,.17-1.87,.36-3.26,.59-1.39,.23-3.08,.33-5.06,.32-1.25,0-2.38-.12-3.39-.35-1.01-.23-1.88-.59-2.61-1.09-.73-.51-1.29-1.16-1.68-1.97-.39-.81-.58-1.8-.57-2.97,0-1.12,.24-2.08,.69-2.86,.45-.78,1.06-1.4,1.82-1.86,.76-.46,1.63-.79,2.61-1,.98-.2,1.99-.3,3.04-.3,.71,0,1.34,.04,1.89,.1,.55,.06,.99,.15,1.34,.25v-.51c0-.93-.27-1.67-.83-2.24-.56-.56-1.53-.85-2.93-.86-.93,0-1.84,.06-2.75,.19-.9,.13-1.69,.32-2.35,.56l-.68-4.4c.32-.1,.72-.2,1.19-.31,.48-.11,1-.2,1.56-.29,.56-.08,1.15-.15,1.78-.21,.62-.06,1.25-.08,1.89-.08Z"/><path class="cls-2" d="M541.89,169.22c0-1.68-.32-3.01-.99-3.98-.67-.97-1.62-1.46-2.87-1.46-1.25,0-2.21,.47-2.9,1.43-.69,.96-1.04,2.29-1.04,3.97,0,1.69,.33,3.03,1.01,4.02,.68,.99,1.64,1.49,2.89,1.5,1.25,0,2.21-.48,2.88-1.47,.68-.99,1.02-2.32,1.03-4.01h0Zm5.57,.03c0,1.52-.23,2.9-.68,4.16-.44,1.25-1.08,2.33-1.92,3.21-.83,.89-1.83,1.57-3,2.06-1.16,.48-2.47,.72-3.91,.71-1.42,0-2.7-.26-3.86-.75-1.16-.5-2.15-1.19-2.98-2.09-.83-.89-1.47-1.97-1.93-3.23-.46-1.26-.68-2.65-.68-4.16,0-1.51,.25-2.89,.74-4.14,.48-1.24,1.15-2.3,1.99-3.18,.85-.87,1.85-1.55,3.02-2.03,1.16-.49,2.43-.72,3.8-.72,1.39,0,2.67,.26,3.82,.75,1.16,.49,2.15,1.18,2.98,2.06,.83,.89,1.47,1.95,1.93,3.2,.46,1.25,.68,2.63,.68,4.14Z"/><path class="cls-2" d="M565.12,169.23c0,1.68,.36,3.04,1.12,4.07,.75,1.03,1.87,1.55,3.36,1.55,.49,0,.94-.01,1.36-.05,.42-.03,.76-.07,1.03-.12l.05-9.93c-.34-.22-.79-.41-1.33-.56-.55-.15-1.1-.23-1.67-.23-2.59-.01-3.89,1.74-3.91,5.26h0Zm12.3,9.22c-.49,.14-1.05,.28-1.69,.41-.64,.13-1.3,.24-2,.34-.7,.09-1.4,.17-2.13,.23-.72,.06-1.41,.08-2.07,.08-1.59,0-3-.25-4.25-.72-1.24-.47-2.29-1.14-3.14-2.01-.85-.87-1.5-1.93-1.94-3.16-.45-1.24-.66-2.62-.66-4.16,0-1.56,.21-2.97,.61-4.23,.4-1.26,.96-2.32,1.7-3.2,.74-.88,1.64-1.54,2.7-2,1.07-.46,2.28-.69,3.65-.68,.76,0,1.43,.08,2.03,.23,.6,.15,1.2,.36,1.81,.63l.04-8.72,5.46-.85-.14,27.81Z"/><path class="cls-2" d="M594.51,167.58c-.02-.46-.1-.92-.23-1.36-.13-.44-.34-.83-.62-1.18-.28-.34-.63-.62-1.06-.85-.43-.22-.96-.34-1.59-.34-.61,0-1.14,.1-1.58,.3-.44,.21-.81,.48-1.1,.82-.29,.34-.52,.74-.68,1.19-.16,.45-.28,.91-.35,1.37l7.22,.04h0Zm-12.83,2.03c0-1.71,.28-3.21,.81-4.48,.53-1.28,1.23-2.35,2.08-3.2,.86-.85,1.85-1.49,2.96-1.93,1.11-.44,2.26-.65,3.43-.64,2.73,.01,4.89,.86,6.47,2.54,1.58,1.68,2.36,4.15,2.35,7.39,0,.32-.02,.67-.04,1.05-.03,.38-.05,.72-.08,1.01l-12.38-.06c.12,1.12,.64,2.02,1.56,2.68,.92,.67,2.17,1,3.73,1.01,1,0,1.98-.08,2.95-.26,.97-.18,1.75-.4,2.37-.67l.71,4.44c-.3,.14-.69,.29-1.18,.43-.49,.14-1.03,.27-1.63,.38-.6,.11-1.24,.19-1.93,.26-.68,.07-1.37,.11-2.05,.1-1.73,0-3.24-.27-4.52-.79-1.28-.52-2.34-1.23-3.18-2.12-.84-.89-1.45-1.95-1.85-3.18-.4-1.22-.59-2.55-.59-3.96Z"/><path class="cls-2" d="M611.87,169.61c0-1.39,.24-2.7,.7-3.94,.46-1.23,1.12-2.3,1.98-3.21,.86-.91,1.9-1.63,3.12-2.16,1.22-.53,2.62-.79,4.18-.79,1.02,0,1.96,.1,2.82,.29,.85,.19,1.68,.46,2.49,.8l-1.16,4.36c-.51-.2-1.07-.37-1.68-.52-.61-.15-1.29-.23-2.05-.23-1.61,0-2.82,.49-3.62,1.49-.8,1-1.2,2.31-1.21,3.95,0,1.74,.36,3.08,1.1,4.04,.74,.96,2.04,1.44,3.89,1.45,.66,0,1.37-.05,2.13-.17,.76-.12,1.46-.31,2.09-.57l.75,4.47c-.64,.27-1.43,.49-2.39,.69-.95,.19-2,.28-3.15,.28-1.76,0-3.27-.28-4.54-.81-1.27-.53-2.31-1.25-3.12-2.16-.81-.91-1.41-1.98-1.78-3.21-.37-1.24-.56-2.57-.55-4.02Z"/><path class="cls-2" d="M642.65,169.72c0-1.68-.32-3.01-.99-3.98-.67-.97-1.62-1.46-2.87-1.46-1.24,0-2.21,.47-2.9,1.43-.69,.96-1.04,2.28-1.05,3.97,0,1.69,.33,3.02,1.01,4.02,.68,.99,1.64,1.49,2.89,1.5,1.25,0,2.21-.48,2.88-1.47,.68-.99,1.02-2.32,1.03-4.01h0Zm5.57,.03c0,1.52-.23,2.9-.68,4.16-.44,1.26-1.08,2.33-1.92,3.22-.83,.89-1.83,1.57-2.99,2.05-1.16,.48-2.47,.72-3.91,.72-1.42,0-2.7-.26-3.86-.75-1.16-.49-2.15-1.19-2.97-2.08-.83-.89-1.47-1.97-1.93-3.23-.46-1.26-.68-2.65-.68-4.17,0-1.51,.25-2.89,.74-4.13,.48-1.24,1.15-2.3,1.99-3.18,.85-.88,1.85-1.55,3.01-2.03,1.16-.49,2.43-.72,3.8-.72,1.39,0,2.67,.26,3.82,.75,1.16,.5,2.15,1.18,2.98,2.07,.83,.89,1.47,1.95,1.93,3.2,.46,1.25,.68,2.63,.68,4.14Z"/><path class="cls-2" d="M663.02,169.28c0-1.76-.21-3.01-.66-3.74-.45-.73-1.22-1.1-2.32-1.11-.34,0-.7,.01-1.06,.05-.37,.03-.72,.07-1.06,.12l-.07,14.88-5.46-.03,.09-18.61c.46-.12,1.01-.25,1.63-.38,.63-.13,1.29-.25,1.98-.35,.69-.11,1.41-.19,2.14-.25,.73-.06,1.45-.08,2.16-.08,1.39,0,2.52,.19,3.39,.55,.87,.36,1.58,.78,2.14,1.28,.78-.56,1.69-.99,2.7-1.31,1.01-.31,1.95-.47,2.8-.46,1.54,0,2.8,.23,3.79,.66,.99,.43,1.77,1.04,2.35,1.82,.58,.79,.98,1.72,1.2,2.79,.21,1.08,.32,2.27,.31,3.59l-.05,10.88-5.46-.02,.05-10.22c0-1.76-.21-3.01-.66-3.74-.45-.73-1.22-1.1-2.32-1.11-.29,0-.7,.07-1.23,.21-.53,.15-.96,.33-1.3,.55,.17,.56,.27,1.15,.32,1.78,.05,.62,.07,1.29,.07,2l-.05,10.52-5.46-.03,.05-10.22Z"/><path class="cls-2" d="M696.36,170.18c0-1.69-.36-3.04-1.12-4.06-.75-1.02-1.87-1.53-3.36-1.54-.49,0-.94,.01-1.36,.05-.42,.03-.76,.08-1.03,.12l-.05,9.86c.34,.22,.79,.41,1.34,.56,.55,.15,1.1,.23,1.67,.23,2.59,.01,3.89-1.73,3.91-5.22h0Zm5.57-.12c0,1.49-.2,2.85-.57,4.07-.37,1.22-.91,2.27-1.63,3.14-.71,.87-1.6,1.56-2.65,2.04-1.05,.48-2.26,.72-3.63,.72-.76,0-1.47-.08-2.12-.23-.66-.15-1.29-.36-1.9-.63l-.04,7.25-5.46-.03,.13-25.39c.49-.14,1.05-.28,1.69-.41,.64-.13,1.3-.24,2-.34,.7-.09,1.41-.17,2.13-.22,.72-.06,1.41-.08,2.07-.08,1.59,0,3,.25,4.25,.73,1.24,.48,2.29,1.16,3.14,2.03,.85,.87,1.5,1.93,1.94,3.18,.45,1.25,.66,2.64,.66,4.18Z"/><path class="cls-2" d="M717.78,165.34c-.49-.12-1.06-.26-1.72-.39-.66-.14-1.37-.21-2.12-.21-.34,0-.75,.03-1.23,.09-.48,.06-.84,.12-1.08,.2l-.07,14.73-5.46-.03,.09-18.25c.98-.34,2.13-.65,3.47-.96,1.33-.3,2.82-.44,4.45-.44,.29,0,.65,.02,1.06,.06,.42,.04,.83,.09,1.24,.15,.42,.06,.83,.14,1.25,.22,.41,.09,.77,.2,1.06,.32l-.94,4.5Z"/><path class="cls-2" d="M728.57,176.02c.54,0,1.05,0,1.54-.03,.49-.02,.88-.05,1.17-.11l.02-4.14c-.22-.05-.55-.1-.99-.15-.44-.05-.84-.07-1.21-.08-.51,0-1,.02-1.45,.08-.45,.06-.85,.17-1.19,.34-.34,.17-.61,.4-.81,.69-.2,.29-.29,.66-.3,1.1,0,.86,.28,1.45,.85,1.78,.57,.34,1.36,.5,2.36,.51h0Zm-.36-15.98c1.61,0,2.96,.2,4.03,.57,1.07,.37,1.93,.9,2.58,1.59,.64,.69,1.1,1.52,1.36,2.5,.26,.98,.39,2.07,.39,3.26l-.06,11.36c-.78,.17-1.87,.36-3.26,.59-1.39,.22-3.08,.33-5.06,.32-1.25,0-2.37-.12-3.39-.35-1.01-.23-1.88-.59-2.61-1.09-.73-.51-1.29-1.16-1.67-1.97-.39-.81-.58-1.8-.57-2.97,0-1.13,.24-2.08,.69-2.86,.46-.78,1.06-1.4,1.82-1.86,.76-.46,1.63-.79,2.61-1,.98-.2,1.99-.3,3.04-.3,.71,0,1.34,.04,1.89,.1,.55,.06,.99,.15,1.34,.25v-.51c0-.93-.27-1.67-.83-2.24-.56-.57-1.53-.85-2.93-.86-.93,0-1.84,.06-2.75,.19-.91,.13-1.69,.31-2.35,.56l-.67-4.4c.32-.1,.72-.2,1.19-.31,.48-.11,1-.2,1.56-.29,.56-.08,1.15-.15,1.78-.21,.62-.06,1.25-.08,1.89-.08Z"/><path class="cls-2" d="M747,176c1,0,1.71-.09,2.13-.28,.42-.19,.63-.57,.63-1.13,0-.44-.26-.83-.8-1.16-.54-.33-1.35-.71-2.45-1.13-.85-.32-1.63-.66-2.32-1-.69-.35-1.28-.76-1.77-1.24-.49-.48-.86-1.05-1.13-1.71-.26-.66-.39-1.46-.39-2.39,0-1.81,.69-3.23,2.04-4.28,1.35-1.04,3.19-1.56,5.54-1.55,1.17,0,2.29,.12,3.37,.33,1.07,.21,1.93,.44,2.56,.69l-.97,4.25c-.63-.22-1.32-.42-2.07-.6-.74-.17-1.58-.27-2.51-.27-1.71,0-2.57,.46-2.57,1.42,0,.22,.03,.42,.11,.59,.07,.17,.22,.34,.44,.49,.22,.16,.52,.34,.89,.52,.38,.19,.86,.39,1.44,.61,1.2,.45,2.18,.89,2.96,1.33,.78,.44,1.39,.9,1.84,1.41,.45,.5,.76,1.06,.94,1.67,.18,.61,.27,1.31,.26,2.12-.01,1.9-.73,3.33-2.16,4.3-1.43,.97-3.46,1.45-6.07,1.44-1.71,0-3.13-.16-4.26-.47-1.13-.3-1.92-.54-2.36-.74l.94-4.43c.93,.37,1.88,.66,2.86,.87,.97,.21,1.94,.32,2.89,.33Z"/><path class="cls-2" d="M764.58,177.11c0,1.1-.36,1.93-1.06,2.5-.7,.57-1.49,.85-2.37,.85-.88,0-1.67-.29-2.36-.87-.69-.58-1.04-1.42-1.03-2.51,0-1.1,.36-1.94,1.06-2.5,.7-.57,1.49-.86,2.37-.85,.88,0,1.66,.3,2.36,.88,.7,.58,1.04,1.42,1.03,2.51Z"/><path class="cls-4" d="M308.11,100.17l-9.11-24.21-9.11,24.21h18.23Zm-21.85-63.37h26.04l42.01,100.39h-32.67l-5.27-13.39h-34.89l-5.13,13.39h-32.1l42.01-100.39Z"/><polygon class="cls-4" points="364.35 37.52 394.1 37.52 394.1 72.69 424.57 72.69 424.57 37.52 454.39 37.52 454.39 137.2 424.57 137.2 424.57 101.45 394.1 101.45 394.1 137.2 364.35 137.2 364.35 37.52"/><polygon class="cls-4" points="472.79 37.52 551.57 37.52 551.57 66 502.61 66 502.61 78.67 548.01 78.67 548.01 104.59 502.61 104.59 502.61 137.2 472.79 137.2 472.79 37.52"/><path class="cls-4" d="M570.21,92.49V37.52h29.23v54.54c0,12.39,6.41,17.66,15.38,17.66s15.38-4.84,15.38-16.95V37.52h29.22v54.25c0,34.03-15.13,47.42-44.89,47.42s-44.32-13.67-44.32-46.71Z"/><polygon class="cls-4" points="674.99 113.85 718.96 64.86 676.7 64.86 676.7 37.52 760.98 37.52 760.98 60.87 717 109.86 760.98 109.86 760.98 137.2 674.99 137.2 674.99 113.85"/><rect class="cls-3" x="126.08" y="143.05" width="29.27" height="33.64"/><path class="cls-4" d="M29.61,158.56l20.05-18.87c3.95,5.56,7.75,8.92,13.31,8.92s9.51-4.68,9.51-11.85V35.52h32.18v100.66c0,13.46-3.07,22.67-10.68,30.27-7.02,7.02-14.93,11.12-27.21,11.12-19.6,0-29.69-7.9-37.15-19.02Z"/><polygon class="cls-4" points="179.63 122.72 156.08 86.32 156.08 137.07 126.08 137.07 126.08 34.69 157.11 34.69 180.21 73 203.32 34.69 234.34 34.69 234.34 137.07 203.76 137.07 203.76 86.32 179.93 123.13 179.63 122.72"/></g></g></g></svg>